<?xml version="1.0" encoding="UTF-8"?>
<svg height="128px" viewBox="0 0 128 128" width="128px" xmlns="http://www.w3.org/2000/svg" xmlns:xlink="http://www.w3.org/1999/xlink">
    <radialGradient id="a" cx="64" cy="32" gradientUnits="userSpaceOnUse" r="59">
        <stop offset="0" stop-color="#b2d6ff"/>
        <stop offset="1" stop-color="#3584e4"/>
    </radialGradient>
    <radialGradient id="b" cx="64" cy="39.701248" gradientTransform="matrix(1 0 0 0.987766 0 0.784456)" gradientUnits="userSpaceOnUse" r="57.87207">
        <stop offset="0" stop-color="#96ffae"/>
        <stop offset="1" stop-color="#33d17a"/>
    </radialGradient>
    <radialGradient id="c" cx="39.899566" cy="72.460007" gradientUnits="userSpaceOnUse" r="30">
        <stop offset="0" stop-color="#ff5b62"/>
        <stop offset="1" stop-color="#e01b24"/>
    </radialGradient>
    <path d="m 123 64 c 0 32.585938 -26.414062 59 -59 59 s -59 -26.414062 -59 -59 s 26.414062 -59 59 -59 s 59 26.414062 59 59 z m 0 0" fill="url(#a)"/>
    <path d="m 79.019531 6.957031 l -6.019531 12.042969 h 8 l 4 -9.992188 c -1.957031 -0.789062 -3.949219 -1.472656 -5.980469 -2.050781 z m 5.980469 2.050781 h 0.007812 l -0.007812 -0.007812 z m 0.007812 0 l 3.992188 5.992188 l -4 4 v 4 h -10 l -1 1 h -6 v 6 l -5 5 h -8 v 10 h 10 v -4 l 6 -6 h 6 l 8 8 v -8 h 4 l 8 8 v -8 l 4 8 h 6 l -0.066406 4 h -41.933594 c -12.148438 0 -22 9.851562 -22 22 s 9.851562 22 22 22 c 3.480469 -0.015625 6.90625 -0.859375 10 -2.457031 v 26.457031 h 0.140625 c 0.339844 2.238281 1.152344 4.382812 2.382813 6.285156 c 23.632812 -5.5625 41.445312 -25.03125 44.890624 -49.066406 l -14.804687 -24.222656 l 3.390625 5.003906 h 2 l 9.804688 13.726562 c 0.085937 -0.90625 0.152343 -1.816406 0.195312 -2.726562 c -0.058594 -24.425781 -15.164062 -46.292969 -37.992188 -54.992188 z m -53.007812 5.433594 c -9.546875 6.171875 -17.105469 14.96875 -21.773438 25.332032 l 15.773438 -15.773438 h 6 z m 35 1.558594 v 6 h 3 v -2 h -1 v -4 z m -4 3 v 3 h 2 v -3 z m -55.742188 61 c 3.273438 11.554688 10 21.835938 19.273438 29.46875 l 5.46875 -5.46875 v -8 h -8 l -16 -16 z m 0 0" fill="url(#b)"/>
    <path d="m 40 64 c -13.476562 0.015625 -25.289062 9.011719 -28.882812 22 h -1.117188 v 9 h 0.070312 c 0.539063 16.148438 13.773438 28.96875 29.929688 29 c 16.15625 -0.03125 29.390625 -12.851562 29.925781 -29 h 0.074219 v -9 h -1.09375 c -3.597656 -12.996094 -15.421875 -21.996094 -28.90625 -22 z m 0 0" fill="#a51d2d"/>
    <path d="m 70 88 c 0 16.570312 -13.429688 30 -30 30 s -30 -13.429688 -30 -30 s 13.429688 -30 30 -30 s 30 13.429688 30 30 z m 0 0" fill="url(#c)"/>
    <path d="m 71.253906 70 c 0 7.320312 -5.933594 13.253906 -13.253906 13.253906 s -13.253906 -5.933594 -13.253906 -13.253906 s 5.933594 -13.253906 13.253906 -13.253906 s 13.253906 5.933594 13.253906 13.253906 z m 0 0"/>
    <path d="m 40 72 c 0 3.3125 -2.6875 6 -6 6 s -6 -2.6875 -6 -6 s 2.6875 -6 6 -6 s 6 2.6875 6 6 z m 0 0"/>
    <path d="m 27 84 c 0 2.761719 -2.238281 5 -5 5 s -5 -2.238281 -5 -5 s 2.238281 -5 5 -5 s 5 2.238281 5 5 z m 0 0"/>
    <path d="m 26 98 c 0 2.210938 -1.789062 4 -4 4 s -4 -1.789062 -4 -4 s 1.789062 -4 4 -4 s 4 1.789062 4 4 z m 0 0"/>
    <path d="m 34 106 c 0 2.210938 -1.789062 4 -4 4 s -4 -1.789062 -4 -4 s 1.789062 -4 4 -4 s 4 1.789062 4 4 z m 0 0"/>
    <path d="m 49 106 c 0 2.761719 -2.238281 5 -5 5 s -5 -2.238281 -5 -5 s 2.238281 -5 5 -5 s 5 2.238281 5 5 z m 0 0"/>
    <path d="m 62 94 c 0 3.3125 -2.6875 6 -6 6 s -6 -2.6875 -6 -6 s 2.6875 -6 6 -6 s 6 2.6875 6 6 z m 0 0"/>
</svg>
