P1
# Created by GIMP version 2.10.18 PNM plug-in
100 220
0000000000000000000000000000000000000000000000000000000000000000000000
0000000000000000000000000000000000000000000000000000000000000000000000
0000000000000000000000000000000000000000000000000000000000000000000000
0000000000000000000000000000000000000000000000000000000000000000000000
0000000000000000000000000000000000000000000000000000000000000000000000
0000000000000000000000000000000000000000000000000000000000000000111111
1000000000000000000000000000000000000000000000010101000000000000000000
0000000000000000000000111000001111000000000000000000000000000000000000
0001111110111100000000000000000000000000000000000011100000000001100000
0000000000000000000000000000000111000000000011000000000000000000000000
0000000000100000000000001100000000000000000000000000000000011000000000
0000011000000000000000000000000000000001000000000000000010000000000000
0000000000000000011100000000000000000100000000000000000000000000000011
0000000000000000110000000000000000000000000000110000000000000000000010
0000000000000000000000000000100000000000000000011000000000000000000000
0000011000000000000000000000110000000000000000000000000001100001111100
0000000010000000000000000000000000110000000000000000000000010000000000
0000000000000000010000011111110000000011000000000000000000000001100000
0000000000000000000110000000000000000000000000010000011111111000000001
0000000000000000000000010000000000000011100000000010000000000000000000
0000000100000011111110000000010000000000000000000001100000000000011111
1110000000100000000000000000000000000100000011111111000000010000000000
0000000000010000000000011111111110000000100000000000000000000000000100
0000011111110000000100000000000000000000110000000000111111111110000000
1000000000000000000000000001100000000111110000000110000000000000000000
1000000000001111111111100000001100000000000000000000000000100000000000
0010000000100000000000000000010000000000011111111111000000001000000000
0000000000000000001100000000000010000000100000000000000000110000000000
1001111111000000000010000000000000000000000000000100000000000010000001
0000000000000000001000000000011000010000000000000010000000000000000000
0000000000110000000000100000010000000000000000001000000000010000000000
0000000000100000000000000000000000000000011000000001100000010000000000
0000000110000000000100000000000000000001100000000000000000000000000000
0011100000110000000100000000000000000100000000000100000000000000000001
0000000000000000000000000000000000111111000000000100000000000000000100
0000000001000000000000000000100000000000000000000000000000000000000000
0000000001000000000000000001000000000001000000000000000001100000000000
0000000000000000000000000000000000000011000000000000000001000000000001
0000000000000000110000000000000000000000000000000000000000000000000010
0000000000000000010000000000001000000000000001100000000000000000000000
0000000000000000000000000000100000000000000000100000000000001100000000
0001100000000000000000000000000000000000000000000000000000100000000000
0000001100000000000001100000000111000000000000000000000000000000000000
0000000000000000010000000000000000000100000000000000111101111100000000
0000000000000000000000000000000000000000001111111100000000000000000100
0000000000000001010000000000000000000000000000000000000000000000000001
1100000001110000000000000001000000000000000000000000000000000000000000
0000000000000000000000000001110000000000011100000000000001000000000000
0000000000000000000000000000000000000000000000000000000011000000000000
0000110000011111111100000000000000000000000000000000000000000000000000
0000000000000001100000000000000000011001110000000111100000000000000000
0000000000000000000000000000000000000000000011000000000000000000001110
0000000000001100000000000000000000000000000000000000000000000000000000
0000100000000000000000000011000000000000000111000000000000000000000000
0000000000000000000000000000000001000000000000000000000100000000000000
0000010000000000000000000000000000000000000000000000000000000011000000
0000000000000011000000000000000000001000000000000000000000000000000000
0000000000000000000000100000000000000000000110000000000000000000000110
0000000000000000000000000000000000000000000000000001000000000000000000
0001000000000000000000000000110000000000000000000000000000000000000000
0000000000010000000000000000000010000000000000000000000000111000000000
0000000000000000000000000000000000000000100000000000000000000110000000
0000000000000000000111000000000000000000000000000000000000000000000001
1000000000000000000001000000000000000000000000000111110000000000000000
0000000000000000000000000000111000000000000000000011000000000000000000
0000000000111110000000000000000000000000000000000000000000110000000000
0000000000100000000000000000000000000000111111000000000000000000000000
0000000000000000011100000000000000000000100000000000000000000000000000
1111111000000000000000000000000000000000000000011100000000000000000001
0000000000000000000000000000000111111000000000000000000000000000000000
0000001110000000000000000000010000000000000000000000000000000111111100
0000000000000000000000000000000000001110000000000000000000110000000000
0000000000000000000001111111100000000000000000000000000000000000011110
0000000000000000001000000000000000000000000000000001111111100000000000
0000000000000000000000000111100000000000000000001000000000000000000000
0000000000011111111100000000000000000000000000000000001111000000000000
0000000010000000000000000000000000000000001111111100000000000000000000
0000000000000011110000000000000010010110000000000000000000000000000000
0011111111100000000000000000000000000000000011110000000000001000001100
0000000000000000000000000000000011111111100000000000000000000000000000
0000111100000000000010000001000000000000000000000000000000000111111111
1100000000000000000000000000000001111100000000000110000001000000000000
0000100000000000000000111111111100000000000000000000000000000001111100
0000000001100000010000000000000010000010000000000000111111111100000000
0000000000000000000000011111000000000001100000110000000000000010000001
0000000000001111111111100000000000000000000000000000011111000000000001
1110111000000000000001000000010000000000011111111111100000000000000000
0000000000000111110000000000011111111100000000000011100000011000000000
0111111111111000000000000000000000000000001111100000000000001111111000
0000000000011000001100000000000111111111111100000000000000000000000000
0011111100000000000001111110000000000000011110111110000000000111111111
1111000000000000000000000000000011111000000000000000010010000000000000
0111111111000000000001111111111111000000000000000000000000000011111100
0000000000000000100000000000000011111111000000000001111111111111000000
0000000000000000000000111111000000000000000000100000000000000011111100
0000000000011111111111110000000000000000000000000000111111000000000000
0000001000000000000000000010000000000000011111111111110000000000000000
0000000000011111110000000000000000001000000000000000000000000000000000
0111111111111110000000000000000000000000001111110000000000000000001000
0000000000000000000000000000000111111111111110000000000000000000000000
0111111100000000000000000010000000000000000000000000000000001111111111
1111100000000000000000000000000111111100000000000000000011000000000000
0000000000000000000011111111111111100000000000000000000000000011111110
0000000000000000010000000000000000000000000000000011111111111111100000
0000000000000000000001111111100000000000000000010000000000000000000000
0000000000111111111111111000000000000000000000000000111111100000000000
0000000100000000000000000000000000000001111111111111111000000000000000
0000000000001111111000000000000000000100000000000000000000000000000001
1111111111111110000000000000000000000000011111111100000000000000000110
0000000000000000000000000000011111111111111100000000000000000000000000
0011111111000000000000000000100000000000000000000000000000011111111111
1111000000000000000000000000000011111111100000000000000000100000000000
0000000000000000001111111111111111000000000000000000000000000011111111
1100000000000000001100000000000000000000000000001111111111111111000000
0000000000000000000000111111111100000000000000000100000000000000000000
0000000111111111111111110000000000000000000000000000111111111110000000
0000000001100000000000000000000000000111111111111111110000000000000000
0000000000001111111111110000000000000000100000000000000000000000001111
1111111111111100000000000000000000000000000111111111111000000000000000
0100000000000000000000000011111111111111111100000000000000000000000000
0001111111111111100000000000000110000000000000000000000111111111111111
1110000000000000000000000000000001111111111111111000000000000111000000
0000000000000011111111111111111110000000000000000000000000000001111111
1111111111111000101111111000000000000000000011111111111111111110000000
0000000000000000000000011111111111111111111111111111111110000000000000
0011111111111111111111100000000000000000000000000000001111111111111111
1111111111111111111000000000000111111111111111111111000000000000000000
0000000000000011111111111111111111111111111111111111110101111111111111
1111111111111100000000000000000000000000000001111111111111111111111111
1111111111111111111111111111111111111111111111100000000000000000000000
0000011111111111111111111111111111111111111111111111111111111111111111
1111111110000000000000000000000000001111111111111111111111111111111111
1111111111111111111111111111111110111111100000000000000000000000001111
1111111111111111111111111111111111111111111111111111111111111111101111
1110000000000000000000000001111111111111111111111111111111111111111111
1111111111111111111111011101111111000000000000000000000001111111111111
1111111111111111111111111111111111111111111111111111101110101111110000
0000000000000000001111111111111111111111111111111111111111111111111111
1111111111101110111110111110000000000000000000000111111111111111111111
1111111111111111111111111111111111111111110111010111011111000000000000
0000000000111111111111111111111111111111010101111111111111111111111111
1111011111011101111000000000000000000000011111111111111111111111111001
0000000101111111111111111111001011111011101111111100000000000000000000
0011111111111111111111110000000101000000111111111111111111000110101110
1110111111000000000000000000000001111111111111111111100101010001010100
0111111111111111110100011101110111111111100000000000000000000001111111
1111111111110010000010000000101111111111111111000010010111011101111111
1100000000000000000000011111111111111111111001010001010100111111111111
1111110100100010111011111111111100000000000000000000011111111111111111
1111110010000001011111111111111111100100010001101110111111111110000000
0000000000001111111111111111111111111111111111111111111111111111000101
0010001101111111111111100000000000000000001111111111111111111111111111
1111111111111111111111000100010100100111010111111111110000000000000000
0111111100011111111111111111111111111111111111111111100101000010000011
1111111111111100000000000000000111111101000111111111111111111111111111
1111111111110000001010010100101111111111111110000000000000000111111101
0100101111111111111111111111111111111111111101001001000100010111111111
1111100000000000000011111110000100001011111111111111111111111111111111
1111001001001010010111111111111111100000000000000011111110100101000000
1111111111111111111111111111111111101000100001000001111111111111100000
0000000000111111001010010101111111111111111111111111111111111111110010
0101001010111111111111111100000000000001111111000001000001111111111111
1111111111111111111111111100100100100000011111111111111100000000000001
1111110101001011111111111111111111111111111111111111111110010010010100
0111111111111111000000000000011111100010100011111111111111111111111111
1111101111111111110100010010100011111111111111000000000000111111101001
0111111111111111111111111111111011111111111111111010100100100110111111
1111111000000000001111111001000111111111111111111111111101111111111111
1111111111101001001000111111111111111000000000001111110010101111111111
1101110111011111111111111111111111111111110010010010011111111111111000
0000000011111100001111111111111111111111111111111111111111111111111111
1111000100100011111111111110000000000111111010111111111111111111111111
1110111111110111111111111111111111101001001110111111111110000000000111
1110001111111111111111111111111111111011111101111111111111111111101001
0000111111111111100000000001111110111111111111111111111111111111111111
1111111111111111111111111110001001101111111111110000000001111110111111
1111111111101101110111111111111111111111111111111111111111101000101010
1111111000000000111111011111111111111111111111111111111111111111111111
1111111111111111111001001111111011011100000000111111111111111111011111
1111111111111011110111111101111111111111111111111101000101011011111100
0000001111111111111111001111111111111111011111111111011111111111111111
1111111111101001111111101111000000001111111111111111001110111111111111
1111111111111111111111111111110111111111110100110101110111000000001111
1111111111101011111111111111111111111111111111111011111111111011111111
1110011011110111110000000111111111111111110011111111111111111111111111
1111111111111111111110011111111111001110111101110000000111111111111111
1111111110111011111111111111111111111111110111111110111111111110011011
1011111100000001111111111111111111111111111111111111111111111111111111
1111111111101111111111110011011101011100000001111110111111111111111111
1111111111110111111111110111111111111111111111111111100011110111101100
0000011111100111111111111111111111111011111110111011111111111111111111
1111111111111100110111011111000000011111101011111111111111111110111111
1111111111111111011111111111111111111111110000111101110111000000011101
1010011111111111110111111111111111111111111111111111111111111111111111
1101001011101111110000001110110001000111111111111111111111111111111111
1111111111111111111111111111110000101110111010110000001111111001010000
1111111111111111111101111111110111111111111111111111111111001010000111
1011111100000011101100001001000111111111111011101111110111111111111111
1111111111111111001000010011011110111100000011101110100010100111111101
1111111111111111111111110111111111111111111101001010010001010111011100
0000111110100101000111111111111111111111111111011111111111111111111111
1111110001010010111111011101000000110111100000100011111111111111111111
1111111110111111111111111111111111111100001000011011101111000000111101
0010100100111111111111111111111111111111111111111111111111111111111110
1001001101101110110000001011111000100101111111111111111111111111111111
1111111111111111111111111111110100100111110111110000001110110010010011
1111111110111111111111111111111111111111111111111111111111111001001101
1111011100000011111110010011111111111111111111110111111111111111111111
1111111111111111111111010001101011111100000011010110001011111111111111
1101111111111111111110111111111111111111111111111111001011111101011100
0000111111101001111111111111111111111111110111111111110111111111111111
1111111111111000101011111111000000110101100111111111111111111111011111
1111110111111111111111111111111111111111111100111110101011000000111111
1000111111111111111111111111111111111111111111111111111111111101111111
1111001010111111110000001101011011111111111111110111111110111111111111
1111110111111111111111111111111110101111101011110000001111111001111111
1111011111111111111111111111110111111111111111111111111111111110001101
1111011100000011010110011111111111111111111111111101111011111111111110
1111111111111111111111100101110111111000000011110111001111111111111111
1101111111111111111111111111111111111111111111111111010011011101111000
0000111111010111111111111111111111111111111111111111011111111111111111
1111111111101001111111111110000000111011110001111111111111011111111111
1111111111111111111111111111111111111111001000111111111110000000110110
1100101111111111111111111111111111111111111111111111111111111111111100
1000011111111111100000001111111100100111111111111111111111111111111111
1111111111111111111111111110100101011111111111100000001110101100001001
1111111111110111011111110111111111111111111111111111100000010000111111
1111111000000001111111110001000111111111111111111011111111111111011111
1111111111111101010010100111111111110000000011101011000100101000111111
1111111111111111101111111111111111111111111100100100001111111111110000
0000011111111000100001011111111111111111111111111011111111111111111111
1111000100010011111111111100000000011010111000010100011111111111111111
1111111111111111111111111111111111101001000111111111111100000000011111
0111010001010111111110111011111101111111111101111111111111111111001001
0100111111111111000000000111011111001010001111111111111111101111111111
1111111111111111111111110100100001111111111110000000000011111011100000
1011111111111111111111111111101111111111111111111111110010010101111111
1111100000000000110111101010100001111111111111111111111111111111111111
1111111111111010010010011111111111100000000000111010111000010101111111
1111111111111101111111111011111111111111111001001000111111111111100000
0000000111111010101000101111111101111111111111111110111111111111111111
1001001001001111111111110000000000000110111111001010010111111111110111
0111111111111111111111111001011000100100101111111111110000000000000111
1111110001001001111111111111111111110111111111101111110100000101001010
0111111111111100000000000000111111111001001000001011111111111111111111
1111111111111001010100001000100111111111111100000000000000111111111001
0100101001011111111111111111111101111111110100010010010010001111111111
1110000000000000000111111111000010001001001111111110111110111111111111
1100100100100100101011111111111110000000000000000111111111101001010100
1011111011111111111111111111110001001001000010000111111111111110000000
0000000000111111111010100001001000111111111111111111111111111100100100
0100101001111111111111000000000000000000111111111100001010100101111111
1111111111111111111100100010010000010011111111111111000000000000000000
0111111111101001000100001111111111111111111111111110101000101010010011
1111111111100000000000000000000011111111100010010010111111111111111111
1111111111000010100010001001111111111111100000000000000000000001111111
1110001010100011111111111111111111111111101000101001000011111111111111
1000000000000000000000011111111111000100010111111111111101111111111111
0001010001001011101011111111110000000000000000000000001111111111110010
0001111111111111111111111111111000001001000001111111111111110000000000
0000000000000001111111111111011111111111111111011111111111111110010000
0111110110111111111000000000000000000000000000111111111111111111111111
1111111111111111111111110101010110110111111111111000000000000000000000
0000000011111111111111111111111111110111111111111111011111111101111101
0111111100000000000000000000000000000001111111111111111111111111100001
1111111111111101101011110101111011111100000000000000000000000000000000
1111111111111111111111111000011111111111110111011110111111011110111000
0000000000000000000000000000000011111111111111111111111000011111111111
1110111101110101011101111100000000000000000000000000000000000001111111
1111111111111110001111111111111111101111011111110111011000000000000000
0000000000000000000000000011111111111111111110000111111111110101111011
1101101110111110000000000000000000000000000000000000000000010101111111
1111100011111111111111110101101111011011111000000000000000000000000000
0000000000000000000000011111111111100001111111111111111111101011111101
1110000000000000000000000000000000000000000000000000011111111111100011
1111111111001111101111010111111000000000000000000000000000000000000000
0000000000000111111111111000111111111111000001111111111111100000000000
0000000000000000000000000000000000000000000111111111111000011111111111
0000000010111111000000000000000000000000000000000000000000000000000000
0001111111111110001111111111110000000000000000000000000000000000000000
0000000000000000000000000001000001111111111110000111111111110000000000
0000000000000000000000000000000000000000000000000000111111111101111111
1111100011111111111100000000000000000000000000000000000000000000000000
0000000001111111111111111111111111100001111111111100000000000000000000
0000000000000000000000000000000000000011111111111111111111111111100011
1111111111000000000000000000000000000000000000000000000000000000000111
1111111111111111111111111110111111111111000000000000000000000000000000
0000000000000000000000000001111111111111111111111111111111111111111111
0000000000000000000000000000000000000000000000000000000001111111111111
1111111111111111111111111111110000000000000000000000000000000000000000
0000000000000000111111111111111111111111111111111111111111110000000000
0000000000000000000000000000000000000000000000111111111111111111111111
1111111111111111111100000000000000000000000000000000000000000000000000
0000001111111111111111111111111111111111111111111100000000000000000000
0000000000000000000000000000000000000111111111111111111111111111111111
1111111111000000000000000000000000000000000000000000000000000000000111
1111111111111111111111111111111111111111000000000000000000000000000000
0000000000000000000000000001111111111111111111111111111111111111111111
0000000000000000000000000000000000000000000000000000000001111111111111
1111111111111111111111111111110000000000000000000000000000000000000000
0000000000000000001111111111111111111111111111111111111111110000000000
0000000000000000000000000000000000000000000000000111111111111111111111
1111111111111111111100000000000000000000000000000000000000000000000000
0000000000001111111111111111111111111111111111111100000000000000000000
0000000000000000000000000000000000000000000000000000001111111111111111
1111111111000000000000000000000000000000000000000000000000000000000000
0000000000000011111111111111111111111110000000000000000000000000000000
0000000000000000000000000000000000000000000000011111111111111110100000
0000000000000000000000000000000000000000000000000000000000000000000000
0000000000000000000000000000000000000000000000000000000000000000000000
0000000000000000000000000000000000000000000000000000000000000000000000
0000000000000000000000000000000000000000000000000000000000000000000000
0000000000000000000000000000000000000000000000000000000000000000000000
0000000000000000000000000000000000000000000000000000000000000000000000
00000000000000000000